<svg viewBox="0 0 256 256" xmlns="http://www.w3.org/2000/svg">
  <rect width="256" height="256" fill="#eef2f4" />
  <g transform="translate(-4 70) scale(1.1)">
    <ellipse cx="120" cy="45" rx="87" ry="30" fill="#eef2f4" stroke="none" />
    <ellipse cx="120" cy="45" rx="87" ry="30" fill="none" stroke="#0f5132" stroke-width="3.2" />
    <path d="M33 45h174" fill="none" stroke="#0f5132" stroke-width="3.2" />
    <path d="M120 15c-7 6-11 17-11 30s4 24 11 30" fill="none" stroke="#0f5132" stroke-width="3.2" />
    <path d="M120 15c7 6 11 17 11 30s-4 24-11 30" fill="none" stroke="#0f5132" stroke-width="3.2" />
    <path d="M120 15c-22 5-37 16-37 30s15 25 37 30" fill="none" stroke="#0f5132" stroke-width="3.2" />
    <path d="M120 15c22 5 37 16 37 30s-15 25-37 30" fill="none" stroke="#0f5132" stroke-width="3.2" />
    <path d="M120 15c-39 6-62 17-62 30s23 24 62 30" fill="none" stroke="#0f5132" stroke-width="3.2" />
    <path d="M120 15c39 6 62 17 62 30s-23 24-62 30" fill="none" stroke="#0f5132" stroke-width="3.2" />
    <rect x="74" y="30" width="92" height="26" rx="3" fill="#eef2f4" stroke="none" />
    <text
      x="120"
      y="53"
      fill="#0f5132"
      font-family="'Helvetica Neue', Helvetica, Arial, sans-serif"
      font-size="22"
      font-weight="700"
      letter-spacing="0.08em"
      stroke="none"
      text-anchor="middle"
    >
      INNIES
    </text>
  </g>
</svg>
